<?xml version="1.0" encoding="UTF-8"?>
<!DOCTYPE svg PUBLIC "-//W3C//DTD SVG 1.1//EN" "http://www.w3.org/Graphics/SVG/1.1/DTD/svg11.dtd">
<svg xmlns="http://www.w3.org/2000/svg" version="1.1" width="200px" height="84px" style="shape-rendering:geometricPrecision; text-rendering:geometricPrecision; image-rendering:optimizeQuality; fill-rule:evenodd; clip-rule:evenodd" xmlns:xlink="http://www.w3.org/1999/xlink">
<g><path style="opacity:0.304" fill="#d9d6d2" d="M 98.5,7.5 C 99.4971,6.28749 100.497,6.45415 101.5,8C 100.956,8.71719 100.289,9.21719 99.5,9.5C 99.6716,8.50838 99.3382,7.84171 98.5,7.5 Z"/></g>
<g><path style="opacity:0.404" fill="#d3d3cb" d="M 98.5,7.5 C 99.3382,7.84171 99.6716,8.50838 99.5,9.5C 99.19,10.7383 98.69,10.7383 98,9.5C 97.3083,8.56323 97.475,7.89657 98.5,7.5 Z"/></g>
<g><path style="opacity:0.02" fill="#fefffe" d="M 95.5,9.5 C 96.8333,10.1667 96.8333,10.1667 95.5,9.5 Z"/></g>
<g><path style="opacity:0.663" fill="#87aca7" d="M 104.5,10.5 C 106.97,11.3603 107.137,12.6936 105,14.5C 103.232,13.3181 103.065,11.9848 104.5,10.5 Z"/></g>
<g><path style="opacity:0.455" fill="#e9d1ce" d="M 95.5,10.5 C 95.9342,13.1662 94.9342,14.3329 92.5,14C 91.306,11.3422 92.306,10.1756 95.5,10.5 Z"/></g>
<g><path style="opacity:0.49" fill="#f0dcde" d="M 86.5,16.5 C 86.5,17.1667 86.1667,17.5 85.5,17.5C 84.5,14.8333 83.5,14.8333 82.5,17.5C 81.0716,15.6227 81.5716,14.2894 84,13.5C 85.7491,13.7483 86.5824,14.7483 86.5,16.5 Z"/></g>
<g><path style="opacity:0.043" fill="#e7e8e7" d="M 102.5,15.5 C 101.833,14.1667 101.833,14.1667 102.5,15.5 Z"/></g>
<g><path style="opacity:0.557" fill="#a3d3cb" d="M 116.5,15.5 C 115.041,15.4326 113.708,15.7659 112.5,16.5C 112.167,16.5 111.833,16.5 111.5,16.5C 112.877,13.2742 114.543,12.9409 116.5,15.5 Z"/></g>
<g><path style="opacity:0.137" fill="#f3e6e0" d="M 100.5,16.5 C 100.167,16.5 99.8333,16.5 99.5,16.5C 96.5,16.5 93.5,16.5 90.5,16.5C 93.2281,15.7948 96.0614,15.1281 99,14.5C 99.7172,15.0442 100.217,15.7109 100.5,16.5 Z"/></g>
<g><path style="opacity:0.047" fill="#defdff" d="M 108.5,16.5 C 106.833,16.5 105.167,16.5 103.5,16.5C 103.167,16.5 102.833,16.5 102.5,16.5C 102.5,16.1667 102.5,15.8333 102.5,15.5C 104.144,15.7135 105.644,15.3802 107,14.5C 107.717,15.0442 108.217,15.7109 108.5,16.5 Z"/></g>
<g><path style="opacity:0.827" fill="#ceaeab" d="M 85.5,17.5 C 84.5,17.5 83.5,17.5 82.5,17.5C 83.5,14.8333 84.5,14.8333 85.5,17.5 Z"/></g>
<g><path style="opacity:0.702" fill="#d2b0a1" d="M 90.5,17.5 C 90.5,17.1667 90.5,16.8333 90.5,16.5C 93.5,16.5 96.5,16.5 99.5,16.5C 99.5,16.8333 99.5,17.1667 99.5,17.5C 97.9731,17.427 96.9731,18.0937 96.5,19.5C 95.1667,19.5 93.8333,19.5 92.5,19.5C 93.6602,17.7973 92.9935,17.1307 90.5,17.5 Z"/></g>
<g><path style="opacity:0.663" fill="#80a9b2" d="M 103.5,16.5 C 105.167,16.5 106.833,16.5 108.5,16.5C 108.5,16.8333 108.5,17.1667 108.5,17.5C 106.901,17.2322 105.568,17.5655 104.5,18.5C 103.833,18.5 103.167,18.5 102.5,18.5C 102.833,17.8333 103.167,17.1667 103.5,16.5 Z"/></g>
<g><path style="opacity:0.18" fill="#d5f1f3" d="M 111.5,16.5 C 111.167,17.1667 110.833,17.8333 110.5,18.5C 109.833,18.1667 109.167,17.8333 108.5,17.5C 108.5,17.1667 108.5,16.8333 108.5,16.5C 109.5,15.1667 110.5,15.1667 111.5,16.5 Z"/></g>
<g><path style="opacity:0.835" fill="#679892" d="M 116.5,15.5 C 116.5,16.5 116.5,17.5 116.5,18.5C 114.517,18.8432 113.183,18.1765 112.5,16.5C 113.708,15.7659 115.041,15.4326 116.5,15.5 Z"/></g>
<g><path style="opacity:0.094" fill="#f2efdd" d="M 86.5,16.5 C 86.8333,16.5 87.1667,16.5 87.5,16.5C 87.5,17.5 87.5,18.5 87.5,19.5C 85.3227,18.4958 84.9893,19.1625 86.5,21.5C 86.1667,21.5 85.8333,21.5 85.5,21.5C 85.1667,21.5 84.8333,21.5 84.5,21.5C 83.8333,20.1667 83.1667,18.8333 82.5,17.5C 83.5,17.5 84.5,17.5 85.5,17.5C 86.1667,17.5 86.5,17.1667 86.5,16.5 Z"/></g>
<g><path style="opacity:0.11" fill="#fff2e2" d="M 87.5,16.5 C 88.5,16.5 89.5,16.5 90.5,16.5C 90.5,16.8333 90.5,17.1667 90.5,17.5C 90.1667,17.5 89.8333,17.5 89.5,17.5C 88.5489,18.9187 88.2155,20.5853 88.5,22.5C 87.5084,22.6716 86.8417,22.3382 86.5,21.5C 87.3382,21.1583 87.6716,20.4916 87.5,19.5C 87.5,18.5 87.5,17.5 87.5,16.5 Z"/></g>
<g><path style="opacity:0.733" fill="#afa8b2" d="M 99.5,16.5 C 99.8333,16.5 100.167,16.5 100.5,16.5C 101.167,16.5 101.833,16.5 102.5,16.5C 102.833,16.5 103.167,16.5 103.5,16.5C 103.167,17.1667 102.833,17.8333 102.5,18.5C 102.5,18.8333 102.5,19.1667 102.5,19.5C 101.5,19.5 100.5,19.5 99.5,19.5C 99.5,18.8333 99.5,18.1667 99.5,17.5C 99.5,17.1667 99.5,16.8333 99.5,16.5 Z"/></g>
<g><path style="opacity:0.988" fill="#e2a192" d="M 89.5,17.5 C 89.8333,17.5 90.1667,17.5 90.5,17.5C 92.9935,17.1307 93.6602,17.7973 92.5,19.5C 92.1667,19.5 91.8333,19.5 91.5,19.5C 90.1667,19.5 89.5,18.8333 89.5,17.5 Z"/></g>
<g><path style="opacity:0.569" fill="#d5a4a2" d="M 99.5,17.5 C 99.5,18.1667 99.5,18.8333 99.5,19.5C 98.8333,19.5 98.1667,19.5 97.5,19.5C 97.1667,19.5 96.8333,19.5 96.5,19.5C 96.9731,18.0937 97.9731,17.427 99.5,17.5 Z"/></g>
<g><path style="opacity:0.553" fill="#92c3cd" d="M 102.5,19.5 C 102.5,19.1667 102.5,18.8333 102.5,18.5C 103.167,18.5 103.833,18.5 104.5,18.5C 105.791,18.2627 106.791,18.596 107.5,19.5C 107.5,19.8333 107.5,20.1667 107.5,20.5C 107.167,20.5 106.833,20.5 106.5,20.5C 106.5,19.8333 106.167,19.5 105.5,19.5C 105.167,19.5 104.833,19.5 104.5,19.5C 103.833,19.5 103.167,19.5 102.5,19.5 Z"/></g>
<g><path style="opacity:0.855" fill="#539395" d="M 104.5,18.5 C 105.568,17.5655 106.901,17.2322 108.5,17.5C 109.167,17.8333 109.833,18.1667 110.5,18.5C 110.5,18.8333 110.5,19.1667 110.5,19.5C 110.5,21.1667 110.5,22.8333 110.5,24.5C 109.833,24.5 109.167,24.5 108.5,24.5C 108.784,22.5853 108.451,20.9187 107.5,19.5C 106.791,18.596 105.791,18.2627 104.5,18.5 Z"/></g>
<g><path style="opacity:0.157" fill="#f6e3d9" d="M 91.5,19.5 C 91.8333,19.5 92.1667,19.5 92.5,19.5C 93.8333,19.5 95.1667,19.5 96.5,19.5C 96.8333,19.5 97.1667,19.5 97.5,19.5C 97.8417,20.3382 98.5084,20.6716 99.5,20.5C 99.5,20.8333 99.5,21.1667 99.5,21.5C 98.5,21.5 97.5,21.5 96.5,21.5C 95.1667,21.5 93.8333,21.5 92.5,21.5C 92.5,23.8333 92.5,26.1667 92.5,28.5C 92.1667,28.5 91.8333,28.5 91.5,28.5C 91.5,25.5 91.5,22.5 91.5,19.5 Z"/></g>
<g><path style="opacity:0.325" fill="#c4d2d8" d="M 104.5,19.5 C 104.833,19.5 105.167,19.5 105.5,19.5C 106.167,19.5 106.5,19.8333 106.5,20.5C 106.5,20.8333 106.5,21.1667 106.5,21.5C 106.167,21.5 105.833,21.5 105.5,21.5C 105.167,21.5 104.833,21.5 104.5,21.5C 103.5,21.5 102.5,21.5 101.5,21.5C 100.833,21.5 100.167,21.5 99.5,21.5C 99.5,21.1667 99.5,20.8333 99.5,20.5C 101.415,20.7845 103.081,20.4511 104.5,19.5 Z"/></g>
<g><path style="opacity:0.02" fill="#d5f5f5" d="M 115.5,21.5 C 114.5,21.5 113.5,21.5 112.5,21.5C 112.369,20.7611 112.536,20.0944 113,19.5C 114.008,19.9817 115.175,20.1484 116.5,20C 115.944,20.3826 115.611,20.8826 115.5,21.5 Z"/></g>
<g><path style="opacity:0.812" fill="#c39795" d="M 96.5,21.5 C 96.5,22.1667 96.5,22.8333 96.5,23.5C 96.5,23.8333 96.5,24.1667 96.5,24.5C 96.5,26.8333 96.5,29.1667 96.5,31.5C 96.5,31.8333 96.5,32.1667 96.5,32.5C 96.1667,32.5 95.8333,32.5 95.5,32.5C 95.5,31.5 95.5,30.5 95.5,29.5C 95.5,28.1667 95.5,26.8333 95.5,25.5C 94.8333,21.5 94.1667,21.5 93.5,25.5C 93.5,26.8333 93.5,28.1667 93.5,29.5C 93.5,30.8333 93.5,32.1667 93.5,33.5C 93.5,34.1667 93.5,34.8333 93.5,35.5C 93.1667,35.5 92.8333,35.5 92.5,35.5C 92.5,33.5 92.5,31.5 92.5,29.5C 92.5,29.1667 92.5,28.8333 92.5,28.5C 92.5,26.1667 92.5,23.8333 92.5,21.5C 93.8333,21.5 95.1667,21.5 96.5,21.5 Z"/></g>
<g><path style="opacity:0.059" fill="#ddfeff" d="M 110.5,19.5 C 111.167,20.1667 111.833,20.8333 112.5,21.5C 112.5,22.1667 112.5,22.8333 112.5,23.5C 111.833,23.5 111.5,23.8333 111.5,24.5C 111.5,25.1667 111.167,25.5 110.5,25.5C 110.5,25.1667 110.5,24.8333 110.5,24.5C 110.5,22.8333 110.5,21.1667 110.5,19.5 Z"/></g>
<g><path style="opacity:0.565" fill="#d4c1b1" d="M 84.5,21.5 C 84.8333,21.5 85.1667,21.5 85.5,21.5C 85.5,22.5 85.5,23.5 85.5,24.5C 83.4482,23.9473 83.1148,22.9473 84.5,21.5 Z"/></g>
<g><path style="opacity:0.153" fill="#fbe4d6" d="M 85.5,21.5 C 85.8333,21.5 86.1667,21.5 86.5,21.5C 86.8417,22.3382 87.5084,22.6716 88.5,22.5C 88.5,22.8333 88.5,23.1667 88.5,23.5C 87.8333,23.8333 87.1667,24.1667 86.5,24.5C 86.1667,24.5 85.8333,24.5 85.5,24.5C 85.5,23.5 85.5,22.5 85.5,21.5 Z"/></g>
<g><path style="opacity:0.812" fill="#b58789" d="M 96.5,21.5 C 97.5,21.5 98.5,21.5 99.5,21.5C 99.1788,23.0481 98.1788,23.7148 96.5,23.5C 96.5,22.8333 96.5,22.1667 96.5,21.5 Z"/></g>
<g><path style="opacity:0.804" fill="#9b9fa0" d="M 99.5,21.5 C 100.167,21.5 100.833,21.5 101.5,21.5C 101.557,22.609 101.89,23.609 102.5,24.5C 100.5,24.5 98.5,24.5 96.5,24.5C 96.5,24.1667 96.5,23.8333 96.5,23.5C 98.1788,23.7148 99.1788,23.0481 99.5,21.5 Z"/></g>
<g><path style="opacity:0.424" fill="#82afa9" d="M 112.5,21.5 C 113.5,21.5 114.5,21.5 115.5,21.5C 115.5,22.1667 115.5,22.8333 115.5,23.5C 114.5,23.5 113.5,23.5 112.5,23.5C 112.5,22.8333 112.5,22.1667 112.5,21.5 Z"/></g>
<g><path style="opacity:0.146" fill="#ffe5db" d="M 88.5,23.5 C 88.5,23.8333 88.5,24.1667 88.5,24.5C 88.5,26.5 88.5,28.5 88.5,30.5C 88.1667,30.5 87.8333,30.5 87.5,30.5C 87.1667,29.5 86.5,28.8333 85.5,28.5C 85.5,28.1667 85.5,27.8333 85.5,27.5C 86.8333,27.1667 86.8333,26.8333 85.5,26.5C 85.8333,25.8333 86.1667,25.1667 86.5,24.5C 87.1667,24.1667 87.8333,23.8333 88.5,23.5 Z"/></g>
<g><path style="opacity:0.951" fill="#d8a69b" d="M 89.5,17.5 C 89.5,18.8333 90.1667,19.5 91.5,19.5C 91.5,22.5 91.5,25.5 91.5,28.5C 91.5,28.8333 91.5,29.1667 91.5,29.5C 91.5,31.5 91.5,33.5 91.5,35.5C 91.1667,35.5 90.8333,35.5 90.5,35.5C 90.5,34.1667 90.5,32.8333 90.5,31.5C 90.6621,29.4727 90.4955,27.4727 90,25.5C 89.6174,24.944 89.1174,24.6107 88.5,24.5C 88.5,24.1667 88.5,23.8333 88.5,23.5C 88.5,23.1667 88.5,22.8333 88.5,22.5C 88.2155,20.5853 88.5489,18.9187 89.5,17.5 Z"/></g>
<g><path style="opacity:0.729" fill="#66919a" d="M 101.5,21.5 C 102.5,21.5 103.5,21.5 104.5,21.5C 104.443,22.609 104.11,23.609 103.5,24.5C 103.167,24.5 102.833,24.5 102.5,24.5C 101.89,23.609 101.557,22.609 101.5,21.5 Z"/></g>
<g><path style="opacity:0.937" fill="#cb817b" d="M 95.5,25.5 C 94.8333,25.5 94.1667,25.5 93.5,25.5C 94.1667,21.5 94.8333,21.5 95.5,25.5 Z"/></g>
<g><path style="opacity:0.561" fill="#82c8d0" d="M 107.5,19.5 C 108.451,20.9187 108.784,22.5853 108.5,24.5C 108.5,25.1667 108.167,25.5 107.5,25.5C 107.5,24.8333 107.167,24.5 106.5,24.5C 106.5,23.5 106.5,22.5 106.5,21.5C 107.167,21.5 107.5,21.1667 107.5,20.5C 107.5,20.1667 107.5,19.8333 107.5,19.5 Z"/></g>
<g><path style="opacity:0.047" fill="#d6eef1" d="M 111.5,24.5 C 111.5,23.8333 111.833,23.5 112.5,23.5C 113.5,23.5 114.5,23.5 115.5,23.5C 116.833,24.5 116.833,25.5 115.5,26.5C 114.833,26.5 114.167,26.5 113.5,26.5C 113.167,25.5 112.5,24.8333 111.5,24.5 Z"/></g>
<g><path style="opacity:0.129" fill="#f2dfd9" d="M 79.5,26.5 C 78.5,26.5 77.5,26.5 76.5,26.5C 76.5,27.5 76.5,28.5 76.5,29.5C 75.5655,28.4324 75.2322,27.099 75.5,25.5C 77.099,25.2322 78.4324,25.5655 79.5,26.5 Z"/></g>
<g><path style="opacity:0.882" fill="#4a6f88" d="M 104.5,21.5 C 104.833,21.5 105.167,21.5 105.5,21.5C 105.5,23.5 105.5,25.5 105.5,27.5C 104.833,27.5 104.167,27.5 103.5,27.5C 103.5,26.5 103.5,25.5 103.5,24.5C 104.11,23.609 104.443,22.609 104.5,21.5 Z"/></g>
<g><path style="opacity:0.494" fill="#d0b5b0" d="M 79.5,26.5 C 79.817,29.5345 78.817,30.5345 76.5,29.5C 76.5,28.5 76.5,27.5 76.5,26.5C 77.5,26.5 78.5,26.5 79.5,26.5 Z"/></g>
<g><path style="opacity:0.004" fill="#fefffe" d="M 80.5,27.5 C 81.8333,28.1667 81.8333,28.1667 80.5,27.5 Z"/></g>
<g><path style="opacity:0.678" fill="#95b1bb" d="M 102.5,24.5 C 102.833,24.5 103.167,24.5 103.5,24.5C 103.5,25.5 103.5,26.5 103.5,27.5C 103.5,28.8333 103.5,30.1667 103.5,31.5C 103.5,32.1667 103.167,32.5 102.5,32.5C 100.833,32.5 99.1667,32.5 97.5,32.5C 97.1667,32.5 96.8333,32.5 96.5,32.5C 96.5,32.1667 96.5,31.8333 96.5,31.5C 98.5,31.5 100.5,31.5 102.5,31.5C 102.034,29.7988 102.034,28.2988 102.5,27C 101.833,26.6667 101.167,26.3333 100.5,26C 101.416,25.7216 102.082,25.2216 102.5,24.5 Z"/></g>
<g><path style="opacity:0.063" fill="#a6c2c6" d="M 111.5,27.5 C 111.842,26.6618 112.508,26.3284 113.5,26.5C 114.167,26.5 114.833,26.5 115.5,26.5C 115.5,26.8333 115.5,27.1667 115.5,27.5C 115.5,28.1667 115.5,28.8333 115.5,29.5C 114.167,29.8333 114.167,30.1667 115.5,30.5C 115.5,31.5 115.5,32.5 115.5,33.5C 114.5,33.5 113.5,33.5 112.5,33.5C 112.5,32.5 112.5,31.5 112.5,30.5C 113.833,30.1667 113.833,29.8333 112.5,29.5C 112.5,29.1667 112.5,28.8333 112.5,28.5C 112.5,27.8333 112.167,27.5 111.5,27.5 Z"/></g>
<g><path style="opacity:0.055" fill="#d7e9e9" d="M 119.5,26.5 C 119.5,27.5 119.5,28.5 119.5,29.5C 117.805,28.1736 116.472,28.5069 115.5,30.5C 115.5,30.1667 115.5,29.8333 115.5,29.5C 115.5,28.8333 115.5,28.1667 115.5,27.5C 116.959,27.5674 118.292,27.2341 119.5,26.5 Z"/></g>
<g><path style="opacity:0.859" fill="#6a959d" d="M 119.5,29.5 C 119.5,28.5 119.5,27.5 119.5,26.5C 120.209,25.596 121.209,25.2627 122.5,25.5C 122.657,26.8734 122.49,28.2068 122,29.5C 121.023,30.7736 120.189,30.7736 119.5,29.5 Z"/></g>
<g><path style="opacity:0.192" fill="#d4c8b8" d="M 85.5,26.5 C 85.5,26.8333 85.5,27.1667 85.5,27.5C 85.5,27.8333 85.5,28.1667 85.5,28.5C 84.2566,29.7375 83.2566,29.4041 82.5,27.5C 83.325,26.6143 84.325,26.281 85.5,26.5 Z"/></g>
<g><path style="opacity:0.953" fill="#ae6d73" d="M 93.5,25.5 C 94.1667,25.5 94.8333,25.5 95.5,25.5C 95.5,26.8333 95.5,28.1667 95.5,29.5C 94.8333,29.5 94.1667,29.5 93.5,29.5C 93.5,28.1667 93.5,26.8333 93.5,25.5 Z"/></g>
<g><path style="opacity:0.457" fill="#9bbac3" d="M 105.5,21.5 C 105.833,21.5 106.167,21.5 106.5,21.5C 106.5,22.5 106.5,23.5 106.5,24.5C 106.328,25.4916 106.662,26.1583 107.5,26.5C 107.5,26.8333 107.5,27.1667 107.5,27.5C 106.167,28.8333 106.167,30.1667 107.5,31.5C 107.5,32.1667 107.5,32.8333 107.5,33.5C 106.662,33.8417 106.328,34.5084 106.5,35.5C 106.167,35.5 105.833,35.5 105.5,35.5C 105.5,35.1667 105.5,34.8333 105.5,34.5C 105.5,33.5 105.5,32.5 105.5,31.5C 105.5,30.1667 105.5,28.8333 105.5,27.5C 105.5,25.5 105.5,23.5 105.5,21.5 Z"/></g>
<g><path style="opacity:0.722" fill="#548998" d="M 108.5,24.5 C 109.167,24.5 109.833,24.5 110.5,24.5C 110.5,24.8333 110.5,25.1667 110.5,25.5C 110.5,26.1667 110.5,26.8333 110.5,27.5C 110.5,29.1667 110.5,30.8333 110.5,32.5C 110.167,32.5 109.833,32.5 109.5,32.5C 109.649,31.448 109.483,30.448 109,29.5C 108.814,32.0356 108.314,34.369 107.5,36.5C 107.5,36.1667 107.5,35.8333 107.5,35.5C 107.5,34.8333 107.5,34.1667 107.5,33.5C 107.5,32.8333 107.5,32.1667 107.5,31.5C 107.5,30.1667 107.5,28.8333 107.5,27.5C 107.5,27.1667 107.5,26.8333 107.5,26.5C 107.5,26.1667 107.5,25.8333 107.5,25.5C 108.167,25.5 108.5,25.1667 108.5,24.5 Z"/></g>
<g><path style="opacity:0.031" fill="#def8fa" d="M 110.5,27.5 C 110.833,27.5 111.167,27.5 111.5,27.5C 112.167,27.5 112.5,27.8333 112.5,28.5C 112.5,28.8333 112.5,29.1667 112.5,29.5C 112.5,29.8333 112.5,30.1667 112.5,30.5C 111.596,31.209 111.263,32.209 111.5,33.5C 111.5,34.1667 111.833,34.5 112.5,34.5C 112.5,35.1667 112.5,35.8333 112.5,36.5C 112.167,36.5 111.833,36.5 111.5,36.5C 111.5,35.8333 111.167,35.5 110.5,35.5C 110.5,34.5 110.5,33.5 110.5,32.5C 110.5,30.8333 110.5,29.1667 110.5,27.5 Z"/></g>
<g><path style="opacity:0.804" fill="#c9938f" d="M 88.5,24.5 C 89.1174,24.6107 89.6174,24.944 90,25.5C 90.4955,27.4727 90.6621,29.4727 90.5,31.5C 89.8333,31.5 89.1667,31.5 88.5,31.5C 88.5,31.1667 88.5,30.8333 88.5,30.5C 88.5,28.5 88.5,26.5 88.5,24.5 Z"/></g>
<g><path style="opacity:1" fill="#214e6d" d="M 103.5,27.5 C 104.167,27.5 104.833,27.5 105.5,27.5C 105.5,28.8333 105.5,30.1667 105.5,31.5C 104.833,31.5 104.167,31.5 103.5,31.5C 103.5,30.1667 103.5,28.8333 103.5,27.5 Z"/></g>
<g><path style="opacity:0.969" fill="#845d5f" d="M 93.5,29.5 C 94.1667,29.5 94.8333,29.5 95.5,29.5C 95.5,30.5 95.5,31.5 95.5,32.5C 95.1583,33.3382 94.4916,33.6716 93.5,33.5C 93.5,32.1667 93.5,30.8333 93.5,29.5 Z"/></g>
<g><path style="opacity:0.404" fill="#d2cbb5" d="M 83.5,34.5 C 83.2222,32.6536 83.8888,31.3202 85.5,30.5C 86.9415,32.8329 86.2748,34.1662 83.5,34.5 Z"/></g>
<g><path style="opacity:0.157" fill="#ffe2e4" d="M 87.5,30.5 C 87.8333,30.5 88.1667,30.5 88.5,30.5C 88.5,30.8333 88.5,31.1667 88.5,31.5C 88.5,33.5 88.5,35.5 88.5,37.5C 87.8333,37.5 87.1667,37.5 86.5,37.5C 87.3686,35.283 87.702,32.9496 87.5,30.5 Z"/></g>
<g><path style="opacity:1" fill="#1c4065" d="M 103.5,31.5 C 104.167,31.5 104.833,31.5 105.5,31.5C 105.5,32.5 105.5,33.5 105.5,34.5C 103.973,34.573 102.973,33.9063 102.5,32.5C 103.167,32.5 103.5,32.1667 103.5,31.5 Z"/></g>
<g><path style="opacity:0.831" fill="#be7e82" d="M 88.5,31.5 C 89.1667,31.5 89.8333,31.5 90.5,31.5C 90.5,32.8333 90.5,34.1667 90.5,35.5C 89.6618,35.8417 89.3284,36.5084 89.5,37.5C 89.1667,37.5 88.8333,37.5 88.5,37.5C 88.5,35.5 88.5,33.5 88.5,31.5 Z"/></g>
<g><path style="opacity:0.965" fill="#685c62" d="M 95.5,32.5 C 95.8333,32.5 96.1667,32.5 96.5,32.5C 96.8333,32.5 97.1667,32.5 97.5,32.5C 96.1667,33.5 96.1667,34.5 97.5,35.5C 96.1667,35.5 94.8333,35.5 93.5,35.5C 93.5,34.8333 93.5,34.1667 93.5,33.5C 94.4916,33.6716 95.1583,33.3382 95.5,32.5 Z"/></g>
<g><path style="opacity:1" fill="#454e68" d="M 97.5,32.5 C 99.1667,32.5 100.833,32.5 102.5,32.5C 102.973,33.9063 103.973,34.573 105.5,34.5C 105.5,34.8333 105.5,35.1667 105.5,35.5C 104.833,35.5 104.167,35.5 103.5,35.5C 102.833,35.5 102.167,35.5 101.5,35.5C 101.167,35.5 100.833,35.5 100.5,35.5C 99.5,35.5 98.5,35.5 97.5,35.5C 96.1667,34.5 96.1667,33.5 97.5,32.5 Z"/></g>
<g><path style="opacity:0.094" fill="#d3eaf3" d="M 111.5,33.5 C 111.833,33.5 112.167,33.5 112.5,33.5C 113.5,33.5 114.5,33.5 115.5,33.5C 114.895,35.4812 113.895,35.8146 112.5,34.5C 111.833,34.5 111.5,34.1667 111.5,33.5 Z"/></g>
<g><path style="opacity:0.043" fill="#e7d1d0" d="M 83.5,34.5 C 82.8333,35.1667 82.8333,35.1667 83.5,34.5 Z"/></g>
<g><path style="opacity:0.702" fill="#6e8c96" d="M 109.5,32.5 C 109.833,32.5 110.167,32.5 110.5,32.5C 110.5,33.5 110.5,34.5 110.5,35.5C 111.167,35.5 111.5,35.8333 111.5,36.5C 111.167,37.1667 110.833,37.8333 110.5,38.5C 110.167,38.5 109.833,38.5 109.5,38.5C 109.5,36.5 109.5,34.5 109.5,32.5 Z"/></g>
<g><path style="opacity:0.29" fill="#cec1c8" d="M 91.5,29.5 C 91.8333,29.5 92.1667,29.5 92.5,29.5C 92.5,31.5 92.5,33.5 92.5,35.5C 95.1667,36.8333 97.8333,36.8333 100.5,35.5C 100.833,35.5 101.167,35.5 101.5,35.5C 101.5,35.8333 101.5,36.1667 101.5,36.5C 101.5,36.8333 101.5,37.1667 101.5,37.5C 100.833,37.5 100.167,37.5 99.5,37.5C 98.1667,37.5 96.8333,37.5 95.5,37.5C 94.1667,37.5 92.8333,37.5 91.5,37.5C 91.5,36.8333 91.5,36.1667 91.5,35.5C 91.5,33.5 91.5,31.5 91.5,29.5 Z"/></g>
<g><path style="opacity:0.29" fill="#a4becb" d="M 103.5,35.5 C 104.167,35.5 104.833,35.5 105.5,35.5C 105.833,36.8333 106.167,36.8333 106.5,35.5C 106.833,35.5 107.167,35.5 107.5,35.5C 107.5,35.8333 107.5,36.1667 107.5,36.5C 107.158,37.3382 106.492,37.6716 105.5,37.5C 104.5,37.5 103.5,37.5 102.5,37.5C 102.167,37.5 101.833,37.5 101.5,37.5C 101.5,37.1667 101.5,36.8333 101.5,36.5C 102.492,36.6716 103.158,36.3382 103.5,35.5 Z"/></g>
<g><path style="opacity:0.91" fill="#9a6269" d="M 90.5,35.5 C 90.8333,35.5 91.1667,35.5 91.5,35.5C 91.5,36.1667 91.5,36.8333 91.5,37.5C 91.5,38.1667 91.5,38.8333 91.5,39.5C 90.5,39.1667 89.8333,38.5 89.5,37.5C 89.3284,36.5084 89.6618,35.8417 90.5,35.5 Z"/></g>
<g><path style="opacity:0.478" fill="#92a5ad" d="M 112.5,36.5 C 114.099,36.2322 115.432,36.5655 116.5,37.5C 115.5,37.5 114.5,37.5 113.5,37.5C 113.5,38.5 113.5,39.5 113.5,40.5C 112.566,39.4324 112.232,38.099 112.5,36.5 Z"/></g>
<g><path style="opacity:0.882" fill="#cbadb0" d="M 86.5,37.5 C 85.6322,41.619 83.9656,42.119 81.5,39C 82.9433,35.8815 84.61,35.3815 86.5,37.5 Z"/></g>
<g><path style="opacity:0.902" fill="#664652" d="M 91.5,37.5 C 92.8333,37.5 94.1667,37.5 95.5,37.5C 95.5,38.1667 95.5,38.8333 95.5,39.5C 94.1667,39.5 92.8333,39.5 91.5,39.5C 91.5,38.8333 91.5,38.1667 91.5,37.5 Z"/></g>
<g><path style="opacity:0.929" fill="#3f3b4d" d="M 95.5,37.5 C 96.8333,37.5 98.1667,37.5 99.5,37.5C 99.5,38.1667 99.5,38.8333 99.5,39.5C 98.1667,39.5 96.8333,39.5 95.5,39.5C 95.5,38.8333 95.5,38.1667 95.5,37.5 Z"/></g>
<g><path style="opacity:0.941" fill="#263246" d="M 99.5,37.5 C 100.167,37.5 100.833,37.5 101.5,37.5C 101.833,37.5 102.167,37.5 102.5,37.5C 102.167,38.1667 101.833,38.8333 101.5,39.5C 100.833,39.5 100.167,39.5 99.5,39.5C 99.5,38.8333 99.5,38.1667 99.5,37.5 Z"/></g>
<g><path style="opacity:1" fill="#172a46" d="M 102.5,37.5 C 103.5,37.5 104.5,37.5 105.5,37.5C 105.5,38.1667 105.5,38.8333 105.5,39.5C 104.167,39.5 102.833,39.5 101.5,39.5C 101.833,38.8333 102.167,38.1667 102.5,37.5 Z"/></g>
<g><path style="opacity:0.929" fill="#233d52" d="M 109.5,32.5 C 109.5,34.5 109.5,36.5 109.5,38.5C 109.5,39.1667 109.167,39.5 108.5,39.5C 107.5,39.5 106.5,39.5 105.5,39.5C 105.5,38.8333 105.5,38.1667 105.5,37.5C 106.492,37.6716 107.158,37.3382 107.5,36.5C 108.314,34.369 108.814,32.0356 109,29.5C 109.483,30.448 109.649,31.448 109.5,32.5 Z"/></g>
<g><path style="opacity:0.008" fill="#fefffe" d="M 110.5,38.5 C 111.833,39.1667 111.833,39.1667 110.5,38.5 Z"/></g>
<g><path style="opacity:0.89" fill="#617482" d="M 116.5,37.5 C 117.463,39.2984 116.796,40.6317 114.5,41.5C 113.893,41.3764 113.56,41.0431 113.5,40.5C 113.5,39.5 113.5,38.5 113.5,37.5C 114.5,37.5 115.5,37.5 116.5,37.5 Z"/></g>
<g><path style="opacity:0.165" fill="#dcc0c5" d="M 88.5,37.5 C 88.8333,37.5 89.1667,37.5 89.5,37.5C 89.8333,38.5 90.5,39.1667 91.5,39.5C 92.8333,39.5 94.1667,39.5 95.5,39.5C 95.5,39.8333 95.5,40.1667 95.5,40.5C 93.4727,40.6621 91.4727,40.4955 89.5,40C 88.7476,39.3292 88.4142,38.4959 88.5,37.5 Z"/></g>
<g><path style="opacity:0.129" fill="#b6bcc8" d="M 95.5,40.5 C 95.5,40.1667 95.5,39.8333 95.5,39.5C 96.8333,39.5 98.1667,39.5 99.5,39.5C 100.167,39.5 100.833,39.5 101.5,39.5C 102.833,39.5 104.167,39.5 105.5,39.5C 106.5,39.5 107.5,39.5 108.5,39.5C 105.833,40.1667 103.167,40.8333 100.5,41.5C 99.8333,41.5 99.1667,41.5 98.5,41.5C 97.791,40.596 96.791,40.2627 95.5,40.5 Z"/></g>
<g><path style="opacity:0.675" fill="#82898e" d="M 97.5,42.5 C 97.5,41.8333 97.8333,41.5 98.5,41.5C 99.1667,41.5 99.8333,41.5 100.5,41.5C 100.196,43.7957 99.1959,44.129 97.5,42.5 Z"/></g>
<g><path style="opacity:0.043" fill="#d0e8e7" d="M 103.5,42.5 C 102.833,41.1667 102.833,41.1667 103.5,42.5 Z"/></g>
<g><path style="opacity:0.008" fill="#fefffe" d="M 97.5,42.5 C 96.8333,43.1667 96.8333,43.1667 97.5,42.5 Z"/></g>
<g><path style="opacity:0.643" fill="#a49b9a" d="M 92.5,42.5 C 93.9953,42.4148 94.9953,43.0815 95.5,44.5C 94.1667,45.8333 92.8333,45.8333 91.5,44.5C 91.8627,43.8165 92.1961,43.1499 92.5,42.5 Z"/></g>
<g><path style="opacity:0.024" fill="#d4d5fe" d="M 101.5,43.5 C 102.833,44.1667 102.833,44.1667 101.5,43.5 Z"/></g>
<g><path style="opacity:0.373" fill="#9fadb1" d="M 103.5,42.5 C 104.791,42.2627 105.791,42.596 106.5,43.5C 105.167,43.5 104.5,44.1667 104.5,45.5C 103.596,44.791 103.263,43.791 103.5,42.5 Z"/></g>
<g><path style="opacity:0.533" fill="#777d80" d="M 99.5,46.5 C 99.1667,46.5 98.8333,46.5 98.5,46.5C 97.5249,44.4599 98.1916,44.1266 100.5,45.5C 100.376,46.1067 100.043,46.44 99.5,46.5 Z"/></g>
<g><path style="opacity:0.549" fill="#768085" d="M 106.5,43.5 C 106.631,44.2389 106.464,44.9056 106,45.5C 105.31,46.7383 104.81,46.7383 104.5,45.5C 104.5,44.1667 105.167,43.5 106.5,43.5 Z"/></g>
<g><path style="opacity:0.027" fill="#dadbda" d="M 96.5,46.5 C 97.8333,47.1667 97.8333,47.1667 96.5,46.5 Z"/></g>
<g><path style="opacity:0.063" fill="#e9e9e9" d="M 101.5,47.5 C 101.369,46.7611 101.536,46.0944 102,45.5C 102.692,46.4368 102.525,47.1034 101.5,47.5 Z"/></g>
<g><path style="opacity:0.01" fill="#eef0f5" d="M 98.5,46.5 C 98.8333,46.5 99.1667,46.5 99.5,46.5C 99.4088,48.6977 100.075,49.0311 101.5,47.5C 101.5,48.1667 101.5,48.8333 101.5,49.5C 101.167,49.5 100.833,49.5 100.5,49.5C 99.8333,49.5 99.1667,49.5 98.5,49.5C 97.7611,49.631 97.0944,49.4643 96.5,49C 97.756,48.5831 98.4226,47.7498 98.5,46.5 Z"/></g>
<g><path style="opacity:0.937" fill="#2f3b3f" d="M 44.5,50.5 C 47.3202,50.087 49.3202,51.087 50.5,53.5C 49.8333,54.8333 49.1667,54.8333 48.5,53.5C 47.4324,52.5655 46.099,52.2322 44.5,52.5C 44.5,51.8333 44.5,51.1667 44.5,50.5 Z"/></g>
<g><path style="opacity:0.78" fill="#636b72" d="M 98.5,49.5 C 99.1667,49.5 99.8333,49.5 100.5,49.5C 99.8333,50.5 99.1667,51.5 98.5,52.5C 97.375,51.6522 97.375,50.6522 98.5,49.5 Z"/></g>
<g><path style="opacity:0.796" fill="#646e70" d="M 43.5,50.5 C 46.768,48.8967 49.768,49.3967 52.5,52C 51.9558,52.7172 51.2891,53.2172 50.5,53.5C 49.3202,51.087 47.3202,50.087 44.5,50.5C 44.1667,50.5 43.8333,50.5 43.5,50.5 Z"/></g>
<g><path style="opacity:0.247" fill="#a2adb4" d="M 101.5,49.5 C 103.443,50.0783 103.777,51.0783 102.5,52.5C 104.631,53.1687 106.631,53.8354 108.5,54.5C 108.167,54.5 107.833,54.5 107.5,54.5C 106.167,54.5 104.833,54.5 103.5,54.5C 101.952,54.1788 101.285,53.1788 101.5,51.5C 101.5,50.8333 101.5,50.1667 101.5,49.5 Z"/></g>
<g><path style="opacity:0.976" fill="#192026" d="M 137.5,49.5 C 138.167,49.5 138.833,49.5 139.5,49.5C 139.737,50.791 139.404,51.791 138.5,52.5C 138.167,52.5 137.833,52.5 137.5,52.5C 137.5,51.5 137.5,50.5 137.5,49.5 Z"/></g>
<g><path style="opacity:0.929" fill="#3d4c53" d="M 43.5,50.5 C 43.8333,50.5 44.1667,50.5 44.5,50.5C 44.5,51.1667 44.5,51.8333 44.5,52.5C 44.3284,53.4916 44.6618,54.1583 45.5,54.5C 46.1667,54.5 46.5,54.8333 46.5,55.5C 44.901,55.2322 43.5676,55.5655 42.5,56.5C 40.1882,54.3477 40.5215,52.3477 43.5,50.5 Z"/></g>
<g><path style="opacity:0.329" fill="#9eafb5" d="M 44.5,52.5 C 46.099,52.2322 47.4324,52.5655 48.5,53.5C 47.209,53.2627 46.209,53.596 45.5,54.5C 44.6618,54.1583 44.3284,53.4916 44.5,52.5 Z"/></g>
<g><path style="opacity:0.086" fill="#9dadb4" d="M 98.5,53.5 C 98.5,53.8333 98.5,54.1667 98.5,54.5C 98.1667,54.5 97.8333,54.5 97.5,54.5C 96.5,54.5 95.5,54.5 94.5,54.5C 94.5,53.5 94.5,52.5 94.5,51.5C 93.209,51.2627 92.209,51.596 91.5,52.5C 91.5,53.1667 91.5,53.8333 91.5,54.5C 90.8333,54.5 90.1667,54.5 89.5,54.5C 88.1667,54.5 86.8333,54.5 85.5,54.5C 86.9187,53.5489 88.5853,53.2155 90.5,53.5C 90.5,52.5 90.5,51.5 90.5,50.5C 92.1667,50.5 93.8333,50.5 95.5,50.5C 95.5,51.5 95.5,52.5 95.5,53.5C 96.5,53.5 97.5,53.5 98.5,53.5 Z"/></g>
<g><path style="opacity:0.824" fill="#3b424a" d="M 140.5,53.5 C 140.167,53.5 139.833,53.5 139.5,53.5C 138.833,53.5 138.5,53.1667 138.5,52.5C 139.404,51.791 139.737,50.791 139.5,49.5C 140.521,49.8993 140.854,51.2326 140.5,53.5 Z"/></g>
<g><path style="opacity:0.557" fill="#6e7a7d" d="M 67.5,54.5 C 66.8333,54.5 66.1667,54.5 65.5,54.5C 64.391,54.5569 63.391,54.8902 62.5,55.5C 61.8333,55.5 61.5,55.1667 61.5,54.5C 63.6112,53.2584 65.6112,53.2584 67.5,54.5 Z"/></g>
<g><path style="opacity:0.975" fill="#263740" d="M 91.5,52.5 C 92.209,51.596 93.209,51.2627 94.5,51.5C 94.5,52.5 94.5,53.5 94.5,54.5C 95.5,54.5 96.5,54.5 97.5,54.5C 97.5,54.8333 97.5,55.1667 97.5,55.5C 97.5,55.8333 97.5,56.1667 97.5,56.5C 96.5,57.1667 95.5,57.8333 94.5,58.5C 93.6618,58.1583 93.3284,57.4916 93.5,56.5C 92.8288,55.1529 92.8288,53.9862 93.5,53C 92.9056,52.5357 92.2389,52.369 91.5,52.5 Z"/></g>
<g><path style="opacity:0.837" fill="#27343b" d="M 100.5,49.5 C 100.833,49.5 101.167,49.5 101.5,49.5C 101.5,50.1667 101.5,50.8333 101.5,51.5C 99.8958,52.287 99.2291,53.6203 99.5,55.5C 99.1667,55.5 98.8333,55.5 98.5,55.5C 98.5,55.1667 98.5,54.8333 98.5,54.5C 98.5,54.1667 98.5,53.8333 98.5,53.5C 98.5,53.1667 98.5,52.8333 98.5,52.5C 99.1667,51.5 99.8333,50.5 100.5,49.5 Z"/></g>
<g><path style="opacity:0.043" fill="#d0d1d0" d="M 109.5,53.5 C 110.833,54.1667 110.833,54.1667 109.5,53.5 Z"/></g>
<g><path style="opacity:0.541" fill="#7d888b" d="M 149.5,54.5 C 148.833,54.8333 148.167,55.1667 147.5,55.5C 146.791,54.596 145.791,54.2627 144.5,54.5C 146.167,51.8333 147.833,51.8333 149.5,54.5 Z"/></g>
<g><path style="opacity:0.667" fill="#839799" d="M 157.5,54.5 C 156.167,54.5 154.833,54.5 153.5,54.5C 152.5,54.5 151.5,54.5 150.5,54.5C 151.172,53.7326 152.005,53.0659 153,52.5C 154.654,52.2063 156.154,52.873 157.5,54.5 Z"/></g>
<g><path style="opacity:0.976" fill="#2c3943" d="M 57.5,54.5 C 58.8333,54.5 60.1667,54.5 61.5,54.5C 61.5,55.1667 61.8333,55.5 62.5,55.5C 62.5,55.8333 62.5,56.1667 62.5,56.5C 61.8333,56.5 61.1667,56.5 60.5,56.5C 59.209,56.2627 58.209,56.596 57.5,57.5C 57.5,58.1667 57.1667,58.5 56.5,58.5C 56.5,57.8333 56.5,57.1667 56.5,56.5C 56.8333,55.8333 57.1667,55.1667 57.5,54.5 Z"/></g>
<g><path style="opacity:0.963" fill="#0f232a" d="M 89.5,54.5 C 90.1667,54.5 90.8333,54.5 91.5,54.5C 91.8333,55.1667 92.1667,55.8333 92.5,56.5C 92.5,57.1667 92.1667,57.5 91.5,57.5C 91.1583,56.6618 90.4916,56.3284 89.5,56.5C 89.5,55.8333 89.5,55.1667 89.5,54.5 Z"/></g>
<g><path style="opacity:1" fill="#192730" d="M 101.5,51.5 C 101.285,53.1788 101.952,54.1788 103.5,54.5C 103.167,55.1667 102.833,55.8333 102.5,56.5C 101.5,56.5 100.5,56.5 99.5,56.5C 99.5,56.1667 99.5,55.8333 99.5,55.5C 99.2291,53.6203 99.8958,52.287 101.5,51.5 Z"/></g>
<g><path style="opacity:0.918" fill="#3d4952" d="M 114.5,54.5 C 116.726,53.2437 119.059,53.2437 121.5,54.5C 121.5,55.1667 121.5,55.8333 121.5,56.5C 120.89,57.391 120.557,58.391 120.5,59.5C 120.672,60.4916 120.338,61.1583 119.5,61.5C 119.5,60.1667 119.5,58.8333 119.5,57.5C 118.167,57.5 116.833,57.5 115.5,57.5C 117.129,55.8041 116.796,54.8041 114.5,54.5 Z"/></g>
<g><path style="opacity:0.992" fill="#1a252c" d="M 137.5,52.5 C 137.833,52.5 138.167,52.5 138.5,52.5C 138.5,53.1667 138.833,53.5 139.5,53.5C 139.5,55.1667 139.5,56.8333 139.5,58.5C 139.062,58.4346 138.728,58.6012 138.5,59C 139.823,59.8159 140.489,60.9826 140.5,62.5C 141.506,63.3957 141.506,64.0623 140.5,64.5C 140.167,64.5 139.833,64.5 139.5,64.5C 139.34,62.847 138.674,61.5137 137.5,60.5C 137.5,60.1667 137.5,59.8333 137.5,59.5C 137.5,57.1667 137.5,54.8333 137.5,52.5 Z"/></g>
<g><path style="opacity:0.91" fill="#3e4c53" d="M 144.5,54.5 C 145.791,54.2627 146.791,54.596 147.5,55.5C 146.833,56.8333 145.833,57.8333 144.5,58.5C 144.196,56.2043 143.196,55.871 141.5,57.5C 141.81,55.8564 142.81,54.8564 144.5,54.5 Z"/></g>
<g><path style="opacity:0.929" fill="#1a262d" d="M 153.5,54.5 C 154.833,54.5 156.167,54.5 157.5,54.5C 156.89,55.391 156.557,56.391 156.5,57.5C 155.292,56.7659 153.959,56.4326 152.5,56.5C 152.833,55.8333 153.167,55.1667 153.5,54.5 Z"/></g>
<g><path style="opacity:0.314" fill="#99a5ab" d="M 61.5,54.5 C 60.1667,54.5 58.8333,54.5 57.5,54.5C 56.8333,54.5 56.1667,54.5 55.5,54.5C 53.631,56.6353 52.9644,59.3019 53.5,62.5C 53.8212,64.0481 54.8212,64.7148 56.5,64.5C 54.6431,65.7652 52.9764,65.4318 51.5,63.5C 51.5,63.1667 51.5,62.8333 51.5,62.5C 52.4345,61.4324 52.7678,60.099 52.5,58.5C 52.5,56.8333 52.5,55.1667 52.5,53.5C 55.7131,53.19 58.7131,53.5233 61.5,54.5 Z"/></g>
<g><path style="opacity:1" fill="#2a383f" d="M 55.5,54.5 C 56.1667,54.5 56.8333,54.5 57.5,54.5C 57.1667,55.1667 56.8333,55.8333 56.5,56.5C 54.3227,57.5042 53.9893,56.8375 55.5,54.5 Z"/></g>
<g><path style="opacity:0.945" fill="#162025" d="M 65.5,54.5 C 65.5,55.8333 64.8333,56.5 63.5,56.5C 63.1667,56.5 62.8333,56.5 62.5,56.5C 62.5,56.1667 62.5,55.8333 62.5,55.5C 63.391,54.8902 64.391,54.5569 65.5,54.5 Z"/></g>
<g><path style="opacity:1" fill="#364246" d="M 65.5,54.5 C 66.1667,54.5 66.8333,54.5 67.5,54.5C 68.1667,54.5 68.5,54.8333 68.5,55.5C 67.5,55.8333 66.8333,56.5 66.5,57.5C 66.1667,57.5 65.8333,57.5 65.5,57.5C 64.8333,57.5 64.1667,57.5 63.5,57.5C 63.5,57.1667 63.5,56.8333 63.5,56.5C 64.8333,56.5 65.5,55.8333 65.5,54.5 Z"/></g>
<g><path style="opacity:0.898" fill="#425054" d="M 79.5,55.5 C 78.8333,55.8333 78.1667,56.1667 77.5,56.5C 75.8333,55.1667 74.1667,55.1667 72.5,56.5C 72.1667,56.5 71.8333,56.5 71.5,56.5C 70.2264,55.8106 70.2264,54.9772 71.5,54C 72.6667,53.8333 73.8333,53.6667 75,53.5C 77.0081,53.3068 78.5081,53.9735 79.5,55.5 Z"/></g>
<g><path style="opacity:0.851" fill="#203238" d="M 72.5,56.5 C 74.1667,55.1667 75.8333,55.1667 77.5,56.5C 78.625,57.6522 78.625,58.6522 77.5,59.5C 77.5,58.8333 77.1667,58.5 76.5,58.5C 76.6716,57.5084 76.3382,56.8417 75.5,56.5C 74.8333,56.5 74.1667,56.5 73.5,56.5C 73.1667,56.5 72.8333,56.5 72.5,56.5 Z"/></g>
<g><path style="opacity:0.125" fill="#a2aeb2" d="M 84.5,54.5 C 84.1667,54.5 83.8333,54.5 83.5,54.5C 81.9519,54.8212 81.2852,55.8212 81.5,57.5C 81.1667,57.5 80.8333,57.5 80.5,57.5C 80.5,56.8333 80.1667,56.5 79.5,56.5C 79.5,56.1667 79.5,55.8333 79.5,55.5C 80.9764,53.5682 82.6431,53.2348 84.5,54.5 Z"/></g>
<g><path style="opacity:1" fill="#2f3f42" d="M 83.5,54.5 C 83.8333,54.5 84.1667,54.5 84.5,54.5C 84.8333,54.5 85.1667,54.5 85.5,54.5C 86.8333,54.5 88.1667,54.5 89.5,54.5C 89.5,55.1667 89.5,55.8333 89.5,56.5C 88.5084,56.3284 87.8417,56.6618 87.5,57.5C 86.8333,57.8333 86.1667,58.1667 85.5,58.5C 85.1788,56.9519 84.1788,56.2852 82.5,56.5C 82.8333,55.8333 83.1667,55.1667 83.5,54.5 Z"/></g>
<g><path style="opacity:1" fill="#1a2e39" d="M 91.5,52.5 C 92.2389,52.369 92.9056,52.5357 93.5,53C 92.8288,53.9862 92.8288,55.1529 93.5,56.5C 93.1667,56.5 92.8333,56.5 92.5,56.5C 92.1667,55.8333 91.8333,55.1667 91.5,54.5C 91.5,53.8333 91.5,53.1667 91.5,52.5 Z"/></g>
<g><path style="opacity:0.945" fill="#0f1a23" d="M 103.5,54.5 C 104.833,54.5 106.167,54.5 107.5,54.5C 107.167,55.1667 106.833,55.8333 106.5,56.5C 105.167,56.5 103.833,56.5 102.5,56.5C 102.833,55.8333 103.167,55.1667 103.5,54.5 Z"/></g>
<g><path style="opacity:0.608" fill="#6e7a85" d="M 114.5,54.5 C 113.833,55.5 113.167,56.5 112.5,57.5C 112.167,57.5 111.833,57.5 111.5,57.5C 111.5,55.5 112.5,54.5 114.5,54.5 Z"/></g>
<g><path style="opacity:0.992" fill="#111e26" d="M 114.5,54.5 C 116.796,54.8041 117.129,55.8041 115.5,57.5C 114.662,57.8417 114.328,58.5084 114.5,59.5C 113.833,59.5 113.167,59.5 112.5,59.5C 112.5,58.8333 112.5,58.1667 112.5,57.5C 113.167,56.5 113.833,55.5 114.5,54.5 Z"/></g>
<g><path style="opacity:0.965" fill="#101e25" d="M 130.5,54.5 C 130.167,55.1667 129.833,55.8333 129.5,56.5C 128.624,56.6309 127.957,56.2975 127.5,55.5C 128.325,54.6143 129.325,54.281 130.5,54.5 Z"/></g>
<g><path style="opacity:0.965" fill="#28343b" d="M 130.5,54.5 C 131.5,54.5 132.5,54.5 133.5,54.5C 134.906,54.9731 135.573,55.9731 135.5,57.5C 133.804,55.871 132.804,56.2043 132.5,58.5C 131.833,58.5 131.5,58.1667 131.5,57.5C 131.158,56.6618 130.492,56.3284 129.5,56.5C 129.833,55.8333 130.167,55.1667 130.5,54.5 Z"/></g>
<g><path style="opacity:0.831" fill="#4e5a68" d="M 139.5,53.5 C 139.833,53.5 140.167,53.5 140.5,53.5C 140.501,54.7545 140.834,56.0878 141.5,57.5C 141.5,57.8333 141.5,58.1667 141.5,58.5C 140.833,58.5 140.167,58.5 139.5,58.5C 139.5,56.8333 139.5,55.1667 139.5,53.5 Z"/></g>
<g><path style="opacity:1" fill="#0f1d23" d="M 150.5,54.5 C 151.5,54.5 152.5,54.5 153.5,54.5C 153.167,55.1667 152.833,55.8333 152.5,56.5C 151.833,56.5 151.167,56.5 150.5,56.5C 150.5,55.8333 150.5,55.1667 150.5,54.5 Z"/></g>
<g><path style="opacity:0.02" fill="#bec4c5" d="M 157.5,54.5 C 158.715,55.779 158.382,56.779 156.5,57.5C 156.557,56.391 156.89,55.391 157.5,54.5 Z"/></g>
<g><path style="opacity:0.902" fill="#1e303a" d="M 46.5,55.5 C 46.5,56.1667 46.5,56.8333 46.5,57.5C 45.5,57.5 44.5,57.5 43.5,57.5C 42.8333,57.5 42.5,57.1667 42.5,56.5C 43.5676,55.5655 44.901,55.2322 46.5,55.5 Z"/></g>
<g><path style="opacity:0.95" fill="#15242b" d="M 55.5,54.5 C 53.9893,56.8375 54.3227,57.5042 56.5,56.5C 56.5,57.1667 56.5,57.8333 56.5,58.5C 55.8571,60.0764 54.8571,61.4097 53.5,62.5C 52.9644,59.3019 53.631,56.6353 55.5,54.5 Z"/></g>
<g><path style="opacity:0.949" fill="#59666d" d="M 57.5,57.5 C 58.209,56.596 59.209,56.2627 60.5,56.5C 60.5,57.8333 60.5,59.1667 60.5,60.5C 60.238,61.9778 60.5713,63.3112 61.5,64.5C 62.4519,62.9547 62.7852,61.288 62.5,59.5C 62.3284,58.5084 62.6618,57.8417 63.5,57.5C 63.5,60.1667 63.5,62.8333 63.5,65.5C 62.1667,65.5 60.8333,65.5 59.5,65.5C 60.0356,62.3019 59.369,59.6353 57.5,57.5 Z"/></g>
<g><path style="opacity:0.208" fill="#9aa5ad" d="M 102.5,56.5 C 103.833,56.5 105.167,56.5 106.5,56.5C 106.5,56.8333 106.5,57.1667 106.5,57.5C 105.041,57.4326 103.708,57.7659 102.5,58.5C 102.5,57.8333 102.5,57.1667 102.5,56.5 Z"/></g>
<g><path style="opacity:0.996" fill="#363f48" d="M 107.5,54.5 C 107.833,54.5 108.167,54.5 108.5,54.5C 108.833,54.5 109.167,54.5 109.5,54.5C 110.11,55.391 110.443,56.391 110.5,57.5C 109.105,56.1854 108.105,56.5188 107.5,58.5C 106.833,58.5 106.5,58.1667 106.5,57.5C 106.5,57.1667 106.5,56.8333 106.5,56.5C 106.833,55.8333 107.167,55.1667 107.5,54.5 Z"/></g>
<g><path style="opacity:1" fill="#4c5962" d="M 133.5,54.5 C 132.5,54.5 131.5,54.5 130.5,54.5C 129.325,54.281 128.325,54.6143 127.5,55.5C 127.957,56.2975 128.624,56.6309 129.5,56.5C 130.492,56.3284 131.158,56.6618 131.5,57.5C 129.027,57.0882 127.694,58.0882 127.5,60.5C 126.857,58.9236 125.857,57.5903 124.5,56.5C 124.953,55.5416 125.619,54.7083 126.5,54C 129.039,53.2042 131.372,53.3709 133.5,54.5 Z"/></g>
<g><path style="opacity:0.804" fill="#6a7a83" d="M 149.5,54.5 C 149.833,54.5 150.167,54.5 150.5,54.5C 150.5,55.1667 150.5,55.8333 150.5,56.5C 150.263,57.791 150.596,58.791 151.5,59.5C 151.5,59.8333 151.5,60.1667 151.5,60.5C 150.833,60.5 150.5,60.8333 150.5,61.5C 150.5,62.1667 150.167,62.5 149.5,62.5C 148.746,59.7444 148.746,57.0777 149.5,54.5 Z"/></g>
<g><path style="opacity:0.102" fill="#bcc4cb" d="M 152.5,56.5 C 153.959,56.4326 155.292,56.7659 156.5,57.5C 156.5,57.8333 156.5,58.1667 156.5,58.5C 156.167,58.5 155.833,58.5 155.5,58.5C 153.973,58.573 152.973,57.9063 152.5,56.5 Z"/></g>
<g><path style="opacity:0.863" fill="#50626a" d="M 43.5,57.5 C 44.5,57.5 45.5,57.5 46.5,57.5C 46.8333,58.1667 47.1667,58.8333 47.5,59.5C 45.847,59.3404 44.5137,58.6737 43.5,57.5 Z"/></g>
<g><path style="opacity:0.908" fill="#39494f" d="M 46.5,55.5 C 49.089,55.461 51.089,56.461 52.5,58.5C 52.7678,60.099 52.4345,61.4324 51.5,62.5C 50.4039,58.7113 49.7373,58.7113 49.5,62.5C 48.1667,62.5 46.8333,62.5 45.5,62.5C 45.5,62.1667 45.5,61.8333 45.5,61.5C 46.675,61.719 47.675,61.3857 48.5,60.5C 48.3764,59.8933 48.0431,59.56 47.5,59.5C 47.1667,58.8333 46.8333,58.1667 46.5,57.5C 46.5,56.8333 46.5,56.1667 46.5,55.5 Z"/></g>
<g><path style="opacity:0.176" fill="#afc1c9" d="M 71.5,56.5 C 71.8333,56.5 72.1667,56.5 72.5,56.5C 72.8333,56.5 73.1667,56.5 73.5,56.5C 74.1667,57.8333 74.8333,57.8333 75.5,56.5C 76.3382,56.8417 76.6716,57.5084 76.5,58.5C 75.1667,58.5 73.8333,58.5 72.5,58.5C 72.1667,57.8333 71.8333,57.1667 71.5,56.5 Z"/></g>
<g><path style="opacity:0.931" fill="#0c1920" d="M 83.5,54.5 C 83.1667,55.1667 82.8333,55.8333 82.5,56.5C 82.5,57.5 82.5,58.5 82.5,59.5C 82.5,60.1667 82.1667,60.5 81.5,60.5C 81.5,59.5 81.5,58.5 81.5,57.5C 81.2852,55.8212 81.9519,54.8212 83.5,54.5 Z"/></g>
<g><path style="opacity:0.965" fill="#29373b" d="M 82.5,56.5 C 84.1788,56.2852 85.1788,56.9519 85.5,58.5C 85.5,59.1667 85.1667,59.5 84.5,59.5C 83.8333,59.5 83.1667,59.5 82.5,59.5C 82.5,58.5 82.5,57.5 82.5,56.5 Z"/></g>
<g><path style="opacity:1" fill="#313f49" d="M 92.5,56.5 C 92.8333,56.5 93.1667,56.5 93.5,56.5C 93.3284,57.4916 93.6618,58.1583 94.5,58.5C 95.8333,59.1667 95.8333,59.8333 94.5,60.5C 94.1667,60.5 93.8333,60.5 93.5,60.5C 92.8333,60.5 92.1667,60.5 91.5,60.5C 91.5,59.5 91.5,58.5 91.5,57.5C 92.1667,57.5 92.5,57.1667 92.5,56.5 Z"/></g>
<g><path style="opacity:1" fill="#27353c" d="M 99.5,56.5 C 100.5,56.5 101.5,56.5 102.5,56.5C 102.5,57.1667 102.5,57.8333 102.5,58.5C 102.5,59.5 102.5,60.5 102.5,61.5C 102.167,61.5 101.833,61.5 101.5,61.5C 101.869,59.0065 101.203,58.3398 99.5,59.5C 99.5,58.5 99.5,57.5 99.5,56.5 Z"/></g>
<g><path style="opacity:0.959" fill="#212c32" d="M 110.5,57.5 C 110.5,58.1667 110.5,58.8333 110.5,59.5C 109.391,59.5569 108.391,59.8902 107.5,60.5C 107.5,59.8333 107.5,59.1667 107.5,58.5C 108.105,56.5188 109.105,56.1854 110.5,57.5 Z"/></g>
<g><path style="opacity:0.996" fill="#0b171d" d="M 121.5,56.5 C 122.434,57.5676 122.768,58.901 122.5,60.5C 121.833,60.1667 121.167,59.8333 120.5,59.5C 120.557,58.391 120.89,57.391 121.5,56.5 Z"/></g>
<g><path style="opacity:0.944" fill="#303c43" d="M 124.5,56.5 C 125.857,57.5903 126.857,58.9236 127.5,60.5C 127.5,61.1667 127.5,61.8333 127.5,62.5C 127.5,63.8333 128.167,64.5 129.5,64.5C 130.833,64.5 132.167,64.5 133.5,64.5C 131.372,65.6291 129.039,65.7958 126.5,65C 125.177,64.1841 124.511,63.0174 124.5,61.5C 124.5,60.1667 124.5,58.8333 124.5,57.5C 124.5,57.1667 124.5,56.8333 124.5,56.5 Z"/></g>
<g><path style="opacity:1" fill="#263137" d="M 144.5,58.5 C 145.167,59.5 145.833,60.5 146.5,61.5C 145.599,62.2905 144.932,63.2905 144.5,64.5C 143.094,64.0269 142.427,63.0269 142.5,61.5C 142.737,60.209 142.404,59.209 141.5,58.5C 141.5,58.1667 141.5,57.8333 141.5,57.5C 143.196,55.871 144.196,56.2043 144.5,58.5 Z"/></g>
<g><path style="opacity:1" fill="#0e1a21" d="M 150.5,56.5 C 151.167,56.5 151.833,56.5 152.5,56.5C 152.973,57.9063 153.973,58.573 155.5,58.5C 154.432,59.4345 153.099,59.7678 151.5,59.5C 150.596,58.791 150.263,57.791 150.5,56.5 Z"/></g>
<g><path style="opacity:0.929" fill="#13242c" d="M 60.5,56.5 C 61.1667,56.5 61.8333,56.5 62.5,56.5C 62.8333,56.5 63.1667,56.5 63.5,56.5C 63.5,56.8333 63.5,57.1667 63.5,57.5C 62.6618,57.8417 62.3284,58.5084 62.5,59.5C 61.8333,59.8333 61.1667,60.1667 60.5,60.5C 60.5,59.1667 60.5,57.8333 60.5,56.5 Z"/></g>
<g><path style="opacity:1" fill="#101c21" d="M 68.5,55.5 C 68.8174,58.5719 68.4841,61.5719 67.5,64.5C 66.5258,62.2573 66.1924,59.924 66.5,57.5C 66.8333,56.5 67.5,55.8333 68.5,55.5 Z"/></g>
<g><path style="opacity:0.929" fill="#08191e" d="M 72.5,58.5 C 73.8333,58.5 75.1667,58.5 76.5,58.5C 77.1667,58.5 77.5,58.8333 77.5,59.5C 75.901,59.2322 74.5676,59.5655 73.5,60.5C 72.6618,60.1583 72.3284,59.4916 72.5,58.5 Z"/></g>
<g><path style="opacity:0.957" fill="#0c181f" d="M 135.5,57.5 C 135.5,58.8333 135.5,60.1667 135.5,61.5C 135.5,61.8333 135.5,62.1667 135.5,62.5C 135.167,62.5 134.833,62.5 134.5,62.5C 134.771,60.6203 134.104,59.287 132.5,58.5C 132.804,56.2043 133.804,55.871 135.5,57.5 Z"/></g>
<g><path style="opacity:0.259" fill="#88959c" d="M 137.5,49.5 C 137.5,50.5 137.5,51.5 137.5,52.5C 137.5,54.8333 137.5,57.1667 137.5,59.5C 136.662,59.8417 136.328,60.5084 136.5,61.5C 136.167,61.5 135.833,61.5 135.5,61.5C 135.5,60.1667 135.5,58.8333 135.5,57.5C 136.082,54.2369 136.748,51.5703 137.5,49.5 Z"/></g>
<g><path style="opacity:0.982" fill="#28343b" d="M 139.5,58.5 C 140.167,58.5 140.833,58.5 141.5,58.5C 142.404,59.209 142.737,60.209 142.5,61.5C 141.833,61.8333 141.167,62.1667 140.5,62.5C 140.489,60.9826 139.823,59.8159 138.5,59C 138.728,58.6012 139.062,58.4346 139.5,58.5 Z"/></g>
<g><path style="opacity:0.471" fill="#63777d" d="M 73.5,60.5 C 74.5676,59.5655 75.901,59.2322 77.5,59.5C 77.5,60.1667 77.5,60.8333 77.5,61.5C 77.1667,61.5 76.8333,61.5 76.5,61.5C 76.5,60.8333 76.1667,60.5 75.5,60.5C 74.8333,60.5 74.1667,60.5 73.5,60.5 Z"/></g>
<g><path style="opacity:0.996" fill="#081b21" d="M 79.5,55.5 C 79.5,55.8333 79.5,56.1667 79.5,56.5C 79.8064,59.3854 79.4731,62.0521 78.5,64.5C 78.7373,63.209 78.404,62.209 77.5,61.5C 77.5,60.8333 77.5,60.1667 77.5,59.5C 78.625,58.6522 78.625,57.6522 77.5,56.5C 78.1667,56.1667 78.8333,55.8333 79.5,55.5 Z"/></g>
<g><path style="opacity:0.118" fill="#9ca9b2" d="M 80.5,57.5 C 80.8333,57.5 81.1667,57.5 81.5,57.5C 81.5,58.5 81.5,59.5 81.5,60.5C 81.5,61.8333 81.5,63.1667 81.5,64.5C 82.5,64.5 83.5,64.5 84.5,64.5C 83.4324,65.4345 82.099,65.7678 80.5,65.5C 80.5,62.8333 80.5,60.1667 80.5,57.5 Z"/></g>
<g><path style="opacity:0.192" fill="#a7b3b8" d="M 87.5,57.5 C 87.8417,56.6618 88.5084,56.3284 89.5,56.5C 90.4916,56.3284 91.1583,56.6618 91.5,57.5C 91.5,58.5 91.5,59.5 91.5,60.5C 91.5,61.1667 91.5,61.8333 91.5,62.5C 90.5489,61.0813 90.2155,59.4147 90.5,57.5C 89.5,57.5 88.5,57.5 87.5,57.5 Z"/></g>
<g><path style="opacity:0.006" fill="#f6f6f6" d="M 98.5,58.5 C 98.5,59.1667 98.5,59.8333 98.5,60.5C 96.0673,60.2144 96.0673,59.5477 98.5,58.5 Z"/></g>
<g><path style="opacity:0.792" fill="#364448" d="M 97.5,56.5 C 97.5,56.1667 97.5,55.8333 97.5,55.5C 97.8333,55.5 98.1667,55.5 98.5,55.5C 98.8333,55.5 99.1667,55.5 99.5,55.5C 99.5,55.8333 99.5,56.1667 99.5,56.5C 99.5,57.5 99.5,58.5 99.5,59.5C 99.5,59.8333 99.5,60.1667 99.5,60.5C 99.1667,60.5 98.8333,60.5 98.5,60.5C 98.5,59.8333 98.5,59.1667 98.5,58.5C 98.6716,57.5084 98.3382,56.8417 97.5,56.5 Z"/></g>
<g><path style="opacity:0.855" fill="#47535b" d="M 110.5,57.5 C 110.833,57.5 111.167,57.5 111.5,57.5C 111.833,57.5 112.167,57.5 112.5,57.5C 112.5,58.1667 112.5,58.8333 112.5,59.5C 112.5,60.5 112.5,61.5 112.5,62.5C 111.833,62.1667 111.167,61.8333 110.5,61.5C 110.5,60.8333 110.5,60.1667 110.5,59.5C 110.5,58.8333 110.5,58.1667 110.5,57.5 Z"/></g>
<g><path style="opacity:0.939" fill="#16232a" d="M 120.5,59.5 C 121.167,59.8333 121.833,60.1667 122.5,60.5C 122.5,61.5 122.5,62.5 122.5,63.5C 121.609,62.8902 120.609,62.5569 119.5,62.5C 119.5,62.1667 119.5,61.8333 119.5,61.5C 120.338,61.1583 120.672,60.4916 120.5,59.5 Z"/></g>
<g><path style="opacity:0.784" fill="#6f8188" d="M 121.5,54.5 C 122.728,55.3065 123.728,56.3065 124.5,57.5C 124.5,58.8333 124.5,60.1667 124.5,61.5C 123.833,62.1667 123.167,62.8333 122.5,63.5C 122.5,62.5 122.5,61.5 122.5,60.5C 122.768,58.901 122.434,57.5676 121.5,56.5C 121.5,55.8333 121.5,55.1667 121.5,54.5 Z"/></g>
<g><path style="opacity:0.925" fill="#384349" d="M 155.5,58.5 C 155.833,58.5 156.167,58.5 156.5,58.5C 157.947,59.1342 158.613,60.3009 158.5,62C 158.472,63.0698 158.139,63.9032 157.5,64.5C 157.657,63.1266 157.49,61.7932 157,60.5C 156.583,61.756 155.75,62.4226 154.5,62.5C 154.158,61.6618 153.492,61.3284 152.5,61.5C 152.5,60.8333 152.167,60.5 151.5,60.5C 151.5,60.1667 151.5,59.8333 151.5,59.5C 153.099,59.7678 154.432,59.4345 155.5,58.5 Z"/></g>
<g><path style="opacity:0.912" fill="#112328" d="M 51.5,62.5 C 51.5,62.8333 51.5,63.1667 51.5,63.5C 50.8333,63.1667 50.1667,62.8333 49.5,62.5C 49.7373,58.7113 50.4039,58.7113 51.5,62.5 Z"/></g>
<g><path style="opacity:0.851" fill="#657177" d="M 68.5,55.5 C 69.4013,56.2905 70.0679,57.2905 70.5,58.5C 69.1667,58.8333 69.1667,59.1667 70.5,59.5C 70.5,60.8333 70.5,62.1667 70.5,63.5C 69.2209,64.968 67.5542,65.6347 65.5,65.5C 65.5,62.8333 65.5,60.1667 65.5,57.5C 65.8333,57.5 66.1667,57.5 66.5,57.5C 66.1924,59.924 66.5258,62.2573 67.5,64.5C 68.4841,61.5719 68.8174,58.5719 68.5,55.5 Z"/></g>
<g><path style="opacity:0.949" fill="#26363c" d="M 70.5,58.5 C 71.1667,58.5 71.8333,58.5 72.5,58.5C 72.3284,59.4916 72.6618,60.1583 73.5,60.5C 73.5,61.1667 73.5,61.8333 73.5,62.5C 72.5,62.8333 71.8333,63.5 71.5,64.5C 70.8333,64.5 70.5,64.1667 70.5,63.5C 70.5,62.1667 70.5,60.8333 70.5,59.5C 70.5,59.1667 70.5,58.8333 70.5,58.5 Z"/></g>
<g><path style="opacity:0.957" fill="#364246" d="M 110.5,59.5 C 110.5,60.1667 110.5,60.8333 110.5,61.5C 110.489,63.0174 109.823,64.1841 108.5,65C 106.288,65.7891 104.288,65.6225 102.5,64.5C 104.781,64.9227 106.448,64.256 107.5,62.5C 108.506,62.0623 108.506,61.3957 107.5,60.5C 108.391,59.8902 109.391,59.5569 110.5,59.5 Z"/></g>
<g><path style="opacity:0.969" fill="#121b21" d="M 112.5,59.5 C 113.167,59.5 113.833,59.5 114.5,59.5C 112.922,61.3747 113.255,62.7081 115.5,63.5C 115.5,63.8333 115.5,64.1667 115.5,64.5C 115.167,64.5 114.833,64.5 114.5,64.5C 113.5,64.1667 112.833,63.5 112.5,62.5C 112.5,61.5 112.5,60.5 112.5,59.5 Z"/></g>
<g><path style="opacity:0.933" fill="#0b181e" d="M 62.5,59.5 C 62.7852,61.288 62.4519,62.9547 61.5,64.5C 60.5713,63.3112 60.238,61.9778 60.5,60.5C 61.1667,60.1667 61.8333,59.8333 62.5,59.5 Z"/></g>
<g><path style="opacity:0.047" fill="#cce4ec" d="M 73.5,60.5 C 74.1667,60.5 74.8333,60.5 75.5,60.5C 76.1667,60.5 76.5,60.8333 76.5,61.5C 76.5,61.8333 76.5,62.1667 76.5,62.5C 75.5,62.5 74.5,62.5 73.5,62.5C 73.5,61.8333 73.5,61.1667 73.5,60.5 Z"/></g>
<g><path style="opacity:0.961" fill="#162025" d="M 82.5,59.5 C 83.1667,59.5 83.8333,59.5 84.5,59.5C 84.5,61.1667 84.5,62.8333 84.5,64.5C 83.5,64.5 82.5,64.5 81.5,64.5C 81.5,63.1667 81.5,61.8333 81.5,60.5C 82.1667,60.5 82.5,60.1667 82.5,59.5 Z"/></g>
<g><path style="opacity:1" fill="#374046" d="M 91.5,60.5 C 92.1667,60.5 92.8333,60.5 93.5,60.5C 93.1667,61.8333 92.8333,63.1667 92.5,64.5C 91.6618,64.1583 91.3284,63.4916 91.5,62.5C 91.5,61.8333 91.5,61.1667 91.5,60.5 Z"/></g>
<g><path style="opacity:1" fill="#111e21" d="M 101.5,61.5 C 100.833,61.8333 100.167,62.1667 99.5,62.5C 99.5,61.8333 99.5,61.1667 99.5,60.5C 99.5,60.1667 99.5,59.8333 99.5,59.5C 101.203,58.3398 101.869,59.0065 101.5,61.5 Z"/></g>
<g><path style="opacity:0.949" fill="#4f5e60" d="M 107.5,60.5 C 108.506,61.3957 108.506,62.0623 107.5,62.5C 106.167,62.5 104.833,62.5 103.5,62.5C 103.5,62.1667 103.5,61.8333 103.5,61.5C 104.959,61.5674 106.292,61.2341 107.5,60.5 Z"/></g>
<g><path style="opacity:0.306" fill="#7d898e" d="M 127.5,60.5 C 128.708,61.2341 130.041,61.5674 131.5,61.5C 131.5,61.8333 131.5,62.1667 131.5,62.5C 131.167,62.5 130.833,62.5 130.5,62.5C 129.5,62.5 128.5,62.5 127.5,62.5C 127.5,61.8333 127.5,61.1667 127.5,60.5 Z"/></g>
<g><path style="opacity:0.98" fill="#1e292f" d="M 132.5,58.5 C 134.104,59.287 134.771,60.6203 134.5,62.5C 134.5,63.1667 134.167,63.5 133.5,63.5C 132.508,63.6716 131.842,63.3382 131.5,62.5C 131.5,62.1667 131.5,61.8333 131.5,61.5C 132.404,60.791 132.737,59.791 132.5,58.5 Z"/></g>
<g><path style="opacity:0.302" fill="#8d979e" d="M 137.5,59.5 C 137.5,59.8333 137.5,60.1667 137.5,60.5C 137.157,62.4832 137.824,63.8166 139.5,64.5C 139.833,64.5 140.167,64.5 140.5,64.5C 139.432,65.4345 138.099,65.7678 136.5,65.5C 136.5,64.1667 136.5,62.8333 136.5,61.5C 136.328,60.5084 136.662,59.8417 137.5,59.5 Z"/></g>
<g><path style="opacity:0.851" fill="#45494b" d="M 44.5,61.5 C 44.1667,62.5 43.5,63.1667 42.5,63.5C 40.9719,63.4827 40.4719,62.816 41,61.5C 42.3493,58.9296 43.516,58.9296 44.5,61.5 Z"/></g>
<g><path style="opacity:0.886" fill="#454d4f" d="M 44.5,61.5 C 44.8333,61.5 45.1667,61.5 45.5,61.5C 45.5,61.8333 45.5,62.1667 45.5,62.5C 45.3893,63.1174 45.056,63.6174 44.5,64C 46.1341,64.4935 47.8008,64.6602 49.5,64.5C 48.7261,65.1471 47.7261,65.4805 46.5,65.5C 44.6455,65.6598 43.3121,64.9931 42.5,63.5C 43.5,63.1667 44.1667,62.5 44.5,61.5 Z"/></g>
<g><path style="opacity:0.949" fill="#1b2a2e" d="M 56.5,58.5 C 56.5,60.5 56.5,62.5 56.5,64.5C 54.8212,64.7148 53.8212,64.0481 53.5,62.5C 54.8571,61.4097 55.8571,60.0764 56.5,58.5 Z"/></g>
<g><path style="opacity:0.984" fill="#1f3239" d="M 76.5,62.5 C 76.5,62.1667 76.5,61.8333 76.5,61.5C 76.8333,61.5 77.1667,61.5 77.5,61.5C 78.404,62.209 78.7373,63.209 78.5,64.5C 77.8333,64.5 77.1667,64.5 76.5,64.5C 77.5063,63.6043 77.5063,62.9377 76.5,62.5 Z"/></g>
<g><path style="opacity:0.98" fill="#111820" d="M 93.5,60.5 C 93.8333,60.5 94.1667,60.5 94.5,60.5C 94.5,60.8333 94.5,61.1667 94.5,61.5C 94.5,62.1667 94.8333,62.5 95.5,62.5C 95.1667,63.1667 94.8333,63.8333 94.5,64.5C 93.8333,64.5 93.1667,64.5 92.5,64.5C 92.8333,63.1667 93.1667,61.8333 93.5,60.5 Z"/></g>
<g><path style="opacity:0.79" fill="#5c666a" d="M 98.5,60.5 C 98.8333,60.5 99.1667,60.5 99.5,60.5C 99.5,61.1667 99.5,61.8333 99.5,62.5C 99.5,63.8333 100.167,64.5 101.5,64.5C 98.5,65.8333 95.5,65.8333 92.5,64.5C 93.1667,64.5 93.8333,64.5 94.5,64.5C 95.5,64.5 96.5,64.5 97.5,64.5C 98.8333,63.8333 98.8333,63.1667 97.5,62.5C 96.8333,62.5 96.1667,62.5 95.5,62.5C 94.8333,62.5 94.5,62.1667 94.5,61.5C 96.099,61.7678 97.4324,61.4345 98.5,60.5 Z"/></g>
<g><path style="opacity:1" fill="#1a2326" d="M 101.5,61.5 C 101.833,61.5 102.167,61.5 102.5,61.5C 102.833,61.5 103.167,61.5 103.5,61.5C 103.5,61.8333 103.5,62.1667 103.5,62.5C 103.167,63.1667 102.833,63.8333 102.5,64.5C 102.167,64.5 101.833,64.5 101.5,64.5C 100.167,64.5 99.5,63.8333 99.5,62.5C 100.167,62.1667 100.833,61.8333 101.5,61.5 Z"/></g>
<g><path style="opacity:0.949" fill="#111b1f" d="M 103.5,62.5 C 104.833,62.5 106.167,62.5 107.5,62.5C 106.448,64.256 104.781,64.9227 102.5,64.5C 102.833,63.8333 103.167,63.1667 103.5,62.5 Z"/></g>
<g><path style="opacity:1" fill="#4f5c63" d="M 115.5,57.5 C 116.833,57.5 118.167,57.5 119.5,57.5C 119.5,58.8333 119.5,60.1667 119.5,61.5C 119.5,61.8333 119.5,62.1667 119.5,62.5C 117.901,62.2322 116.568,62.5655 115.5,63.5C 113.255,62.7081 112.922,61.3747 114.5,59.5C 114.328,58.5084 114.662,57.8417 115.5,57.5 Z"/></g>
<g><path style="opacity:0.955" fill="#182024" d="M 146.5,61.5 C 147.167,61.5 147.5,61.8333 147.5,62.5C 147.611,63.1174 147.944,63.6174 148.5,64C 147.207,64.49 145.873,64.6567 144.5,64.5C 144.932,63.2905 145.599,62.2905 146.5,61.5 Z"/></g>
<g><path style="opacity:0.91" fill="#2d363a" d="M 150.5,61.5 C 151.167,61.5 151.833,61.5 152.5,61.5C 152.5,61.8333 152.5,62.1667 152.5,62.5C 151.5,62.8333 150.833,63.5 150.5,64.5C 150.167,64.5 149.833,64.5 149.5,64.5C 149.5,63.8333 149.5,63.1667 149.5,62.5C 150.167,62.5 150.5,62.1667 150.5,61.5 Z"/></g>
<g><path style="opacity:0.906" fill="#212c2e" d="M 45.5,62.5 C 46.8333,62.5 48.1667,62.5 49.5,62.5C 50.1667,62.8333 50.8333,63.1667 51.5,63.5C 51.1583,64.3382 50.4916,64.6716 49.5,64.5C 47.8008,64.6602 46.1341,64.4935 44.5,64C 45.056,63.6174 45.3893,63.1174 45.5,62.5 Z"/></g>
<g><path style="opacity:0.922" fill="#122027" d="M 73.5,62.5 C 74.5,62.5 75.5,62.5 76.5,62.5C 77.5063,62.9377 77.5063,63.6043 76.5,64.5C 74.8333,64.5 73.1667,64.5 71.5,64.5C 71.8333,63.5 72.5,62.8333 73.5,62.5 Z"/></g>
<g><path style="opacity:0.933" fill="#1b242a" d="M 95.5,62.5 C 96.1667,62.5 96.8333,62.5 97.5,62.5C 97.5,63.1667 97.5,63.8333 97.5,64.5C 96.5,64.5 95.5,64.5 94.5,64.5C 94.8333,63.8333 95.1667,63.1667 95.5,62.5 Z"/></g>
<g><path style="opacity:0.945" fill="#101b1f" d="M 119.5,62.5 C 118.817,64.1765 117.483,64.8432 115.5,64.5C 115.5,64.1667 115.5,63.8333 115.5,63.5C 116.568,62.5655 117.901,62.2322 119.5,62.5 Z"/></g>
<g><path style="opacity:0.878" fill="#424e52" d="M 119.5,62.5 C 120.609,62.5569 121.609,62.8902 122.5,63.5C 120.007,65.5838 117.34,65.9171 114.5,64.5C 114.833,64.5 115.167,64.5 115.5,64.5C 117.483,64.8432 118.817,64.1765 119.5,62.5 Z"/></g>
<g><path style="opacity:0.961" fill="#101b1f" d="M 127.5,62.5 C 128.5,62.5 129.5,62.5 130.5,62.5C 130.167,63.1667 129.833,63.8333 129.5,64.5C 128.167,64.5 127.5,63.8333 127.5,62.5 Z"/></g>
<g><path style="opacity:0.98" fill="#0b181b" d="M 130.5,62.5 C 130.833,62.5 131.167,62.5 131.5,62.5C 131.842,63.3382 132.508,63.6716 133.5,63.5C 133.5,63.8333 133.5,64.1667 133.5,64.5C 132.167,64.5 130.833,64.5 129.5,64.5C 129.833,63.8333 130.167,63.1667 130.5,62.5 Z"/></g>
<g><path style="opacity:0.02" fill="#accbcd" d="M 134.5,62.5 C 134.833,62.5 135.167,62.5 135.5,62.5C 135.5,63.8333 134.833,64.5 133.5,64.5C 133.5,64.1667 133.5,63.8333 133.5,63.5C 134.167,63.5 134.5,63.1667 134.5,62.5 Z"/></g>
<g><path style="opacity:0.976" fill="#071116" d="M 137.5,60.5 C 138.674,61.5137 139.34,62.847 139.5,64.5C 137.824,63.8166 137.157,62.4832 137.5,60.5 Z"/></g>
<g><path style="opacity:0.984" fill="#050d12" d="M 152.5,62.5 C 152.918,63.2216 153.584,63.7216 154.5,64C 153.207,64.49 151.873,64.6567 150.5,64.5C 150.833,63.5 151.5,62.8333 152.5,62.5 Z"/></g>
<g><path style="opacity:0.996" fill="#283035" d="M 157.5,64.5 C 155.059,65.7563 152.726,65.7563 150.5,64.5C 151.873,64.6567 153.207,64.49 154.5,64C 153.584,63.7216 152.918,63.2216 152.5,62.5C 153.167,62.5 153.833,62.5 154.5,62.5C 155.75,62.4226 156.583,61.756 157,60.5C 157.49,61.7932 157.657,63.1266 157.5,64.5 Z"/></g>
<g><path style="opacity:0.616" fill="#626f75" d="M 79.5,56.5 C 80.1667,56.5 80.5,56.8333 80.5,57.5C 80.5,60.1667 80.5,62.8333 80.5,65.5C 77.2869,65.81 74.2869,65.4767 71.5,64.5C 73.1667,64.5 74.8333,64.5 76.5,64.5C 77.1667,64.5 77.8333,64.5 78.5,64.5C 79.4731,62.0521 79.8064,59.3854 79.5,56.5 Z"/></g>
<g><path style="opacity:0.486" fill="#7f868b" d="M 147.5,62.5 C 148.167,62.5 148.833,62.5 149.5,62.5C 149.5,63.1667 149.5,63.8333 149.5,64.5C 147.833,65.8333 146.167,65.8333 144.5,64.5C 145.873,64.6567 147.207,64.49 148.5,64C 147.944,63.6174 147.611,63.1174 147.5,62.5 Z"/></g>
</svg>
